# AST/ASF file generated using VICON BodyLanguage
# -----------------------------------------------
:version 1.10
:name VICON
:units
  mass 1.0
  length 0.45
  angle deg
:documentation
   .ast/.asf automatically generated from VICON data using
   VICON BodyBuilder and BodyLanguage model FoxedUp or BRILLIANT.MOD
:root
   order TX TY TZ RX RY RZ
   axis XYZ
   position 0 0 0  
   orientation 0 0 0 
:bonedata
  begin
     id 1 
     name lhipjoint
     direction 0.693937 -0.600361 0.397515 
     length 2.37164 
     axis 0 0 0  XYZ
  end
  begin
     id 2 
     name lfemur
     direction 0.34202 -0.939693 0  
     length 6.18497  
     axis 0 0 20  XYZ
    dof rx ry rz
    limits (-160.0 20.0)
           (-70.0 70.0)
           (-60.0 70.0)
  end
  begin
     id 3 
     name ltibia
     direction 0.34202 -0.939693 0   
     length 6.91601   
     axis 0 0 20   XYZ
    dof rx
    limits (-10.0 170.0)
  end
  begin
     id 4 
     name lfoot
     direction 0.0978718 -0.2689 0.958182   
     length 1.81453   
     axis -90 7.62852e-016 20   XYZ
    dof rx rz
    limits (-45.0 90.0)
           (-70.0 20.0)
  end
  begin
     id 5 
     name ltoes
     direction 1.53569e-011 -4.21951e-011 1   
     length 0.912052   
     axis -90 7.62852e-016 20   XYZ
    dof rx
    limits (-90.0 20.0)
  end
  begin
     id 6 
     name rhipjoint
     direction -0.643996 -0.637876 0.422354   
     length 2.23216  
     axis 0 0 0  XYZ 
  end
  begin
     id 7 
     name rfemur
     direction -0.34202 -0.939693 0   
     length 6.15404   
     axis 0 0 -20   XYZ
    dof rx ry rz
    limits (-160.0 20.0)
           (-70.0 70.0)
           (-70.0 60.0)
  end
  begin
     id 8 
     name rtibia
     direction -0.34202 -0.939693 0   
     length 6.86744   
     axis 0 0 -20   XYZ
    dof rx
    limits (-10.0 170.0)
 end
 begin
     id 9 
     name rfoot
     direction -0.118701 -0.326127 0.937844   
     length 1.9243  
     axis -90 -7.62852e-016 -20   XYZ
    dof rx rz
    limits (-45.0 90.0)
           (-20.0 70.0)
  end
  begin
     id 10 
     name rtoes
     direction -1.5356e-011 -4.2181e-011 1   
     length 0.958865   
     axis -90 -7.62852e-016 -20   XYZ
    dof rx
    limits (-90.0 20.0)
  end
  begin
     id 11 
     name lowerback
     direction 0.0310826 0.968686 -0.246334   
     length 2.00021   
     axis 0 0 0   XYZ
    dof rx ry rz
    limits (-20.0 45.0)
           (-30.0 30.0)
           (-30.0 30.0)
  end
  begin
     id 12 
     name upperback
     direction -0.0152834 0.999474 -0.0286152   
     length 2.03728   
     axis 0 0 0   XYZ
    dof rx ry rz
    limits (-20.0 45.0)
           (-30.0 30.0)
           (-30.0 30.0)
  end
  begin
     id 13 
     name thorax
     direction -0.0323701 0.996236 0.0804149   
     length 2.16   
     axis 0 0 0   XYZ
    dof rx ry rz
    limits (-20.0 45.0)
           (-30.0 30.0)
           (-30.0 30.0)
  end
  begin
     id 14 
     name lowerneck
     direction 0.0307935 0.982251 0.185027   
     length 1.43558   
     axis 0 0 0   XYZ
    dof rx ry rz
    limits (-20.0 45.0)
           (-30.0 30.0)
           (-30.0 30.0)
  end
  begin
     id 15 
     name upperneck
     direction -0.0927153 0.994775 0.0427454   
     length 1.44603   
     axis 0 0 0   XYZ
    dof rx ry rz
    limits (-20.0 45.0)
           (-30.0 30.0)
           (-30.0 30.0)
  end
  begin
     id 16
     name head
     direction -0.0341265 0.999406 -0.00472033  
     length 1.45931  
     axis 0 0 0   XYZ
    dof rx ry rz
    limits (-20.0 45.0)
           (-30.0 30.0)
           (-30.0 30.0)
  end
  begin
     id 17 
     name lclavicle
     direction 0.820755 0.555306 -0.134151  
     length 2.66075  
     axis 0 0 0   XYZ
    dof ry rz
    limits (-20.0 10.0)
           (0.0 20.0)
  end
  begin
     id 18 
     name lhumerus
     direction 1 -4.48971e-011 5.24853e-027   
     length 5.0546   
     axis -180 -30 -90   XYZ
    dof rx ry rz
    limits (-60.0 90.0)
           (-90.0 90.0)
           (-90.0 90.0)
  end
  begin
     id 19
     name lradius
     direction 1 -4.48971e-011 2.76575e-028   
     length 3.39013   
     axis -180 -30 -90   XYZ
    dof rx
    limits (-10.0 170.0)
  end
  begin
     id 20
     name lwrist
     direction 1 -4.48939e-011 -2.27826e-027   
     length 1.69507   
     axis 2.17013e-015 90 90   XYZ
    dof ry
    limits (-180.0 0.0)
 end
  begin
     id 21 
     name lhand
     direction 1 -4.49009e-011 -4.55652e-027   
     length 0.572425   
     axis 2.90745e-015 90 90   XYZ
    dof rx rz
    limits (-90.0 90.0)
           (-45.0 45.0)
  end
  begin
     id 22 
     name lfingers
     direction 1 -4.48955e-011 -9.11303e-027   
     length 0.461504   
     axis 5.81489e-015 90 90   XYZ
    dof rx
    limits (0.0 90.0)
  end
  begin
     id 23
     name lthumb
     direction 0.707107 -6.34929e-011 0.707107   
     length 0.66263   
     axis -90 45 2.85299e-015   XYZ
    dof rx rz
    limits (-45.0 45.0)
           (-45.0 45.0)
  end
  begin
     id 24 
     name rclavicle
     direction -0.754477 0.632921 -0.173712   
     length 2.73081  
     axis 0 0 0   XYZ 
    dof ry rz
    limits (-10.0 20.0)
           (-20.0 0.0)
  end
  begin
     id 25 
     name rhumerus
     direction -1 -4.48969e-011 5.1496e-027  
     length 5.0701   
     axis -180 30 90   XYZ
    dof rx ry rz
    limits (-90.0 60.0)
           (-90.0 90.0)
           (-90.0 90.0)
  end
  begin
     id 26 
     name rradius
     direction -1 -4.48967e-011 -7.15624e-028   
     length 3.14957   
     axis -180 30 90   XYZ
    dof rx
    limits (-10.0 170.0)
  end
  begin
     id 27 
     name rwrist
     direction -1 -4.48938e-011 -2.27826e-027   
     length 1.57479   
     axis 2.17013e-015 -90 -90   XYZ
    dof ry
    limits (-180.0 0.0)
  end
  begin
     id 28
     name rhand
     direction -1 -4.49008e-011 -4.55652e-027   
     length 0.718191   
     axis 2.90745e-015 -90 -90   XYZ
    dof rx rz
    limits (-90.0 90.0)
           (-45.0 45.0)
  end
  begin
     id 29
     name rfingers
     direction -1 -4.48953e-011 -9.11303e-027   
     length 0.579024   
     axis 5.81489e-015 -90 -90   XYZ
    dof rx
    limits (0.0 90.0)
  end
  begin
     id 30
     name rthumb
     direction -0.707107 -6.34937e-011 0.707107   
     length 0.831366   
     axis -90 -45 -2.85299e-015   XYZ
    dof rx rz
    limits (-45.0 45.0)
           (-45.0 45.0)
  end
:hierarchy
  begin
    root lhipjoint rhipjoint lowerback
    lhipjoint lfemur
    lfemur ltibia
    ltibia lfoot
    lfoot ltoes
    rhipjoint rfemur
    rfemur rtibia
    rtibia rfoot
    rfoot rtoes
    lowerback upperback
    upperback thorax
    thorax lowerneck lclavicle rclavicle
    lowerneck upperneck
    upperneck head
    lclavicle lhumerus
    lhumerus lradius
    lradius lwrist
    lwrist lhand lthumb
    lhand lfingers
    rclavicle rhumerus
    rhumerus rradius
    rradius rwrist
    rwrist rhand rthumb
    rhand rfingers
  end

#!OML:ASF H:\Male1\Project 1\Capture day 1\Session 1\Male1.ASF
:FULLY-SPECIFIED
:DEGREES
98
root -19.0625 15.1183 1.5122 -18.5879 66.8402 -21.5674
lowerback 13.6795 1.41939 -0.601081
upperback 4.5925 1.86431 -2.66222
thorax -2.757 1.00902 -2.73986
lowerneck -5.22252 8.11848 11.4482
upperneck 3.78124 10.3967 -7.09441
head 2.93471 5.13947 -3.46329
rclavicle -3.97569e-015 -2.22639e-014
rhumerus 3.52121 15.2237 -41.3551
rradius 75.6707
rwrist -37.4157
rhand -20.4996 2.73538
rfingers 7.12502
rthumb 5.85751 -27.1637
lclavicle -3.97569e-015 -2.22639e-014
lhumerus -32.0426 -6.00414 75.7912
lradius 51.7961
lwrist 27.8001
lhand -34.8235 30.2434
lfingers 7.12502
lthumb -7.97439 60.0729
rfemur 8.91938 16.6616 31.3149
rtibia 15.7057
rfoot -13.7669 -23.3913
rtoes -36.4246
lfemur -33.7932 -15.2567 1.75515
ltibia 36.8696
lfoot -18.051 21.2958
ltoes -17.421
99
root -18.7712 15.254 1.47643 -17.6334 66.1579 -21.003
lowerback 12.7198 1.64952 -1.06184
upperback 4.54191 2.1197 -2.94994
thorax -2.28522 1.13599 -2.78373
lowerneck -5.22288 8.21819 11.1516
upperneck 3.57099 10.5371 -6.96426
head 2.86145 5.20699 -3.37381
rclavicle -9.54166e-015 1.11319e-014
rhumerus 1.97025 17.6297 -39.5152
rradius 78.1621
rwrist -36.8557
rhand -19.0164 4.42539
rfingers 7.12502
rthumb 7.28933 -25.429
lclavicle -9.54166e-015 1.11319e-014
lhumerus -33.5854 -5.39566 74.6606
lradius 52.9689
lwrist 28.5623
lhand -35.1932 29.9661
lfingers 7.12502
lthumb -8.33122 59.7818
rfemur 7.45134 15.0137 30.3886
rtibia 18.5157
rfoot -11.4301 -22.0802
rtoes -34.733
lfemur -32.3741 -17.0721 2.27926
ltibia 35.0469
lfoot -18.5124 22.1797
ltoes -18.1767
100
root -18.4909 15.3352 1.41872 -20.6226 65.2386 -24.5472
lowerback 11.946 1.62329 0.26498
upperback 4.70161 2.26066 -2.68631
thorax -1.65449 1.21705 -3.24018
lowerneck -5.50937 8.39811 11.191
upperneck 3.42204 10.7594 -7.32501
head 2.90546 5.30037 -3.46319
rclavicle 3.49861e-014 6.36111e-015
rhumerus 0.211985 19.361 -38.4206
rradius 81.0344
rwrist -36.8057
rhand -17.3259 4.23969
rfingers 7.12502
rthumb 8.92089 -25.5517
lclavicle 3.49861e-014 6.36111e-015
lhumerus -34.3747 -3.98873 73.7786
lradius 53.0416
lwrist 28.3204
lhand -36.0894 28.9768
lfingers 7.12502
lthumb -9.1961 58.7563
rfemur 5.29799 12.8693 31.1846
rtibia 22.9306
rfoot -10.2429 -20.7802
rtoes -35.9168
lfemur -31.3 -18.0468 4.19259
ltibia 33.946
lfoot -20.3042 21.7375
ltoes -13.6661
101
root -18.2197 15.3823 1.36345 -19.4629 65.1858 -22.9849
lowerback 11.8415 1.71447 -0.882743
upperback 4.90279 2.26915 -2.91416
thorax -1.42155 1.2196 -2.82269
lowerneck -5.71919 8.72747 10.9999
upperneck 3.58466 11.1732 -6.87045
head 2.98769 5.51353 -3.25562
rclavicle -7.23576e-014 -2.38542e-014
rhumerus -2.10253 21.183 -37.5791
rradius 84.2167
rwrist -38.4981
rhand -16.9898 4.9817
rfingers 7.12502
rthumb 9.24518 -24.7956
lclavicle -7.23576e-014 -2.38542e-014
lhumerus -35.0327 -2.08604 73.0227
lradius 52.363
lwrist 27.271
lhand -36.9563 28.1898
lfingers 7.12502
lthumb -10.0325 57.9307
rfemur 3.41517 11.218 29.7916
rtibia 28.3746
rfoot -11.1836 -20.4796
rtoes -33.3831
lfemur -29.3849 -18.4379 2.64219
ltibia 33.0592
lfoot -20.207 22.1465
ltoes -19.4865
102
root -17.9649 15.3834 1.30955 -20.8024 65.2445 -23.8699
lowerback 12.3546 1.69463 -0.917162
upperback 5.04612 2.23891 -2.94773
thorax -1.55051 1.20908 -2.85199
lowerneck -5.482 8.62552 10.9536
upperneck 3.05217 11.0377 -6.69736
head 2.76434 5.45243 -3.22904
rclavicle 1.74931e-014 1.90833e-014
rhumerus -5.25396 21.7662 -37.8743
rradius 87.0359
rwrist -39.0152
rhand -14.8384 4.41175
rfingers 7.12502
rthumb 11.3206 -25.2627
lclavicle 1.74931e-014 1.90833e-014
lhumerus -35.0292 -0.862187 72.4337
lradius 50.8038
lwrist 26.6334
lhand -39.0207 27.9743
lfingers 7.12502
lthumb -12.0236 57.6089
rfemur 1.68151 9.72463 29.5835
rtibia 34.2122
rfoot -13.0984 -21.5796
rtoes -30.2741
lfemur -27.5254 -17.9478 1.72088
ltibia 32.256
lfoot -21.0952 21.3208
ltoes -22.4311
103
root -17.7207 15.3519 1.26671 -21.9988 65.6155 -24.4171
lowerback 13.1321 1.6563 -1.13394
upperback 5.20317 2.15739 -3.08698
thorax -1.81064 1.17409 -2.89227
lowerneck -5.66776 8.60564 11.3527
upperneck 3.33048 10.9639 -6.57941
head 2.88605 5.42355 -3.24416
rclavicle 5.56597e-014 -2.54444e-014
rhumerus -8.82301 22.9494 -38.636
rradius 89.6176
rwrist -40.0314
rhand -16.0152 4.50295
rfingers 7.12502
rthumb 10.1855 -25.2305
lclavicle 5.56597e-014 -2.54444e-014
lhumerus -35.0652 -0.0979311 71.8683
lradius 49.3676
lwrist 26.222
lhand -39.8179 27.6108
lfingers 7.12502
lthumb -12.7923 57.1988
rfemur 0.0512221 8.56288 29.3424
rtibia 40.1896
rfoot -15.3143 -23.3428
rtoes -27.4872
lfemur -25.5389 -17.1971 0.379165
ltibia 31.3051
lfoot -22.8419 20.2117
ltoes -22.2279
104
root -17.4829 15.3146 1.22621 -20.9689 67.0651 -22.2211
lowerback 14.3025 1.52964 -2.79958
upperback 5.43715 1.76125 -3.42132
thorax -2.24264 0.978169 -2.28413
lowerneck -5.67565 8.59526 11.5354
upperneck 3.49038 10.9396 -6.5653
head 2.94242 5.41579 -3.26498
rclavicle 1.66979e-014 3.18055e-015
rhumerus -12.2381 23.6747 -39.7159
rradius 91.9377
rwrist -40.6972
rhand -16.9355 3.75249
rfingers 7.12502
rthumb 9.29757 -26.0225
lclavicle 1.66979e-014 3.18055e-015
lhumerus -34.7263 0.7449 71.6645
lradius 47.7019
lwrist 25.5517
lhand -39.8608 27.313
lfingers 7.12502
lthumb -12.8336 56.8985
rfemur -1.28818 6.99229 27.5428
rtibia 46.0137
rfoot -17.1157 -24.4665
rtoes -25.8828
lfemur -23.6897 -17.7346 -2.46388
ltibia 30.7665
lfoot -22.8213 19.7289
ltoes -19.5328
